<svg width="945" height="986" viewBox="0 0 945 986" fill="none" xmlns="http://www.w3.org/2000/svg">
<path d="M452 0C724.276 0 945 220.724 945 493C945 765.276 724.276 986 452 986C305.19 986 173.325 921.773 83.0752 820.029C66.7667 801.644 68.4504 773.519 86.8359 757.21C105.222 740.901 133.347 742.585 149.656 760.971C223.731 844.479 331.704 897 452 897C675.123 897 856 716.123 856 493C856 269.877 675.123 89 452 89C312.252 89 199.314 142.125 129.652 240H284.5C309.077 240 329 259.923 329 284.5C329 309.077 309.077 329 284.5 329H44.5C19.9233 329 0 309.077 0 284.5V44.5C0 19.9233 19.9233 0 44.5 0C69.0767 0 89 19.9233 89 44.5V148.629C177.503 50.7931 305.69 1.41264e-05 452 0Z" fill="white"/>
</svg>
