<svg width="341" height="343" viewBox="0 0 341 343" fill="none" xmlns="http://www.w3.org/2000/svg">
<path d="M15 113.5H43.5V229.5H15C6.99187 229.5 0.5 223.008 0.5 215V128C0.5 120.117 6.79071 113.703 14.626 113.505L15 113.5Z" fill="#FEB70A" stroke="#FEB70A"/>
<path d="M172.077 24.0791C181.336 15.3891 196.5 21.9535 196.5 34.6514V309.231C196.5 321.798 181.604 328.415 172.279 319.99L83.5 239.777V107.215L172.077 24.0791Z" fill="#FEB70A" stroke="#FEB70A"/>
<path d="M236 128.5C247.644 142.64 253.159 153.463 253 172C252.844 190.18 249.747 199.111 236 214.5M288 79C311.457 106.94 327.651 132.692 327.5 172C327.351 210.947 318.313 232.24 288 264" stroke="#FEB70A" stroke-width="27" stroke-linecap="round"/>
</svg>
