<svg width="356" height="369" viewBox="0 0 356 369" fill="none" xmlns="http://www.w3.org/2000/svg">
<path d="M204.499 322.11C204.499 335.11 189.09 341.955 179.443 333.24L124.904 283.964L204.499 201.224V322.11ZM311.461 90.0349C332.899 116.718 348.655 144.372 348.499 184.93C348.42 205.462 345.996 222.491 338.97 238.89C331.997 255.165 320.933 269.783 305.265 286.2C300.117 291.593 291.571 291.792 286.178 286.644C280.785 281.497 280.586 272.951 285.733 267.557C300.377 252.215 308.989 240.306 314.151 228.258C319.26 216.334 321.428 203.242 321.499 184.827C321.617 154.193 310.799 132.897 292.574 109.669L311.461 90.0349ZM51.499 242.879H22.499C14.2148 242.879 7.49914 236.163 7.49902 227.879V140.879C7.49902 132.594 14.2148 125.879 22.499 125.879H51.499V242.879ZM261.163 142.321C264.208 146.757 266.837 151.342 268.896 156.311C272.525 165.066 274.09 174.256 273.998 184.995C273.914 194.768 273.05 203.438 269.67 212.089C266.312 220.683 260.9 228.163 253.566 236.373C248.599 241.933 240.065 242.413 234.505 237.446C228.945 232.479 228.465 223.945 233.432 218.385C239.844 211.206 242.855 206.526 244.521 202.262C246.165 198.056 246.928 193.169 247 184.762C247.067 176.965 245.954 171.474 243.954 166.648C243.369 165.237 242.68 163.824 241.875 162.371L261.163 142.321ZM179.233 36.5926C188.811 27.6029 204.499 34.3943 204.499 47.5301V114.679L90.499 233.184V119.879L179.233 36.5926Z" fill="#FEB70A"/>
<path d="M342.5 13.5L13.5 355.5" stroke="#FEB70A" stroke-width="27" stroke-linecap="round"/>
</svg>
