<svg width="1346" height="1202" viewBox="0 0 1346 1202" fill="none" xmlns="http://www.w3.org/2000/svg">
<path d="M60 827C93.1371 827 120 853.863 120 887V1082H385C418.137 1082 445 1108.86 445 1142C445 1175.14 418.137 1202 385 1202H60C26.8629 1202 0 1175.14 0 1142V887C0 853.863 26.8629 827 60 827ZM1286 827C1319.14 827 1346 853.863 1346 887V1142C1346 1175.14 1319.14 1202 1286 1202H961C927.863 1202 901 1175.14 901 1142C901 1108.86 927.863 1082 961 1082H1226V887C1226 853.863 1252.86 827 1286 827ZM385 0C418.137 0 445 26.8629 445 60C445 93.1371 418.137 120 385 120H120V315C120 348.137 93.1371 375 60 375C26.8629 375 0 348.137 0 315V60C0 26.8629 26.8629 0 60 0H385ZM1286 0C1319.14 0 1346 26.8629 1346 60V315C1346 348.137 1319.14 375 1286 375C1252.86 375 1226 348.137 1226 315V120H961C927.863 120 901 93.1371 901 60C901 26.8629 927.863 0 961 0H1286Z" fill="white"/>
</svg>
