<svg width="436" height="486" viewBox="0 0 436 486" fill="none" xmlns="http://www.w3.org/2000/svg">
<path d="M395 112C400.523 112 405 116.477 405 122V441C405 465.853 384.853 486 360 486H76C51.1472 486 31 465.853 31 441V122C31 116.477 35.4772 112 41 112H395ZM124 184C115.716 184 109 190.716 109 199V419C109 427.284 115.716 434 124 434C132.284 434 139 427.284 139 419V199C139 190.716 132.284 184 124 184ZM218 184C209.716 184 203 190.716 203 199V419C203 427.284 209.716 434 218 434C226.284 434 233 427.284 233 419V199C233 190.716 226.284 184 218 184ZM312 184C303.716 184 297 190.716 297 199V419C297 427.284 303.716 434 312 434C320.284 434 327 427.284 327 419V199C327 190.716 320.284 184 312 184ZM294 0C302.837 0 310 7.16344 310 16V29H421C429.284 29 436 35.7157 436 44V74C436 82.2843 429.284 89 421 89H15C6.71573 89 0 82.2843 0 74V44C0 35.7157 6.71573 29 15 29H126V16C126 7.16344 133.163 1.61064e-07 142 0H294Z" fill="white"/>
</svg>
