<svg width="309" height="349" viewBox="0 0 309 349" fill="none" xmlns="http://www.w3.org/2000/svg">
<path d="M292.99 269.572C301.832 269.572 309 276.756 309 285.618V332.954C309 341.816 301.832 349 292.99 349H16.0104C7.16808 349 0 341.816 0 332.954V285.618C0 276.756 7.16808 269.572 16.0104 269.572C24.8526 269.572 32.0207 276.756 32.0207 285.618V316.908H276.979V285.618C276.979 276.756 284.147 269.572 292.99 269.572Z" fill="white"/>
<path d="M154.5 0C163.342 0 170.51 7.18403 170.51 16.046V198.741L245.068 124.018C251.32 117.752 261.458 117.752 267.711 124.018C273.963 130.284 273.963 140.445 267.711 146.711L165.821 248.827C159.569 255.093 149.431 255.093 143.179 248.827L41.2892 146.711C35.0369 140.445 35.0368 130.284 41.2892 124.018C47.5416 117.752 57.6796 117.752 63.932 124.018L138.49 198.741V16.046C138.49 7.18403 145.658 0 154.5 0Z" fill="white"/>
</svg>
